<svg xmlns="http://www.w3.org/2000/svg" xmlns:xlink="http://www.w3.org/1999/xlink" width="138.759" height="19.704" viewBox="0 0 138.759 19.704">
  <defs>
    <linearGradient id="linear-gradient" x1="0.806" x2="0.052" y2="1" gradientUnits="objectBoundingBox">
      <stop offset="0" stop-color="#33d35e"/>
      <stop offset="1" stop-color="#2ab6d9"/>
    </linearGradient>
  </defs>
  <g id="Groupe_2" data-name="Groupe 2" transform="translate(-165 -48)">
    <g id="Group_9" data-name="Group 9" transform="translate(165 48)">
      <path id="easybank" d="M39.872,19.7V16.34h1.076c1.5,0,1.95-.391,2.48-1.805L38.731,4.1h4.255L45.4,10.368,47.647,4.1h4.207L47.089,14.968c-1.533,3.479-2.941,4.736-5.877,4.736ZM66.83,9.778A5.769,5.769,0,0,1,72.791,3.75a5.392,5.392,0,0,1,3.474,1.222l.4-.879h2.919V15.462H76.557l-.335-.8a5.387,5.387,0,0,1-3.431,1.189A5.8,5.8,0,0,1,66.83,9.778ZM56.287,14.63l-.369.844h-2.9V0h3.872V4.534a5.331,5.331,0,0,1,2.825-.784A5.775,5.775,0,0,1,65.689,9.8a5.775,5.775,0,0,1-5.972,6.048A5.275,5.275,0,0,1,56.287,14.63ZM28.094,11.747h3.769a1.172,1.172,0,0,0,1.321,1.214c.572,0,1.115-.292,1.115-.88,0-.655-.86-.842-1.952-1.023-1.763-.285-4.1-.817-4.1-3.575,0-2.279,1.942-3.75,4.856-3.75,2.894,0,4.771,1.54,4.815,3.844H34.251c0-.726-.488-1.064-1.2-1.064-.628,0-1.05.311-1.05.838,0,.647.87.8,1.95.99,1.8.319,4.183.692,4.183,3.576,0,2.376-2.005,3.93-5.026,3.93C30.013,15.846,28.13,14.21,28.094,11.747ZM13.5,9.778A5.769,5.769,0,0,1,19.465,3.75a5.39,5.39,0,0,1,3.473,1.222l.4-.879h2.918V15.462H23.231l-.336-.8a5.382,5.382,0,0,1-3.43,1.189A5.8,5.8,0,0,1,13.5,9.778ZM0,9.781A5.928,5.928,0,0,1,6.175,3.733a5.9,5.9,0,0,1,6.2,5.949,7.3,7.3,0,0,1-.081,1.037H3.854A2.208,2.208,0,0,0,6.175,12.7a2.282,2.282,0,0,0,2.056-1.067h3.9a5.986,5.986,0,0,1-5.952,4.216A5.962,5.962,0,0,1,0,9.781Zm102.564,5.693-2.848-4.808v4.808H95.8V0h3.916V8.559L102.424,4.1h4.4l-3.542,5.419,3.9,5.95Zm-13.19,0V9.083c0-1.323-.5-1.98-1.482-1.98-1.221,0-1.923.853-1.923,2.3v6.071H82.052V4.1H84.8l.538,1.173a4.725,4.725,0,0,1,3.578-1.508c2.64,0,4.374,1.876,4.374,4.773v6.932Z" transform="translate(31.579 0)" fill="#fff"/>
      <g id="Group_8" data-name="Group 8">
        <path id="Path_5" data-name="Path 5" d="M10.8,0,0,19.7H5.986L16.789,0Z" transform="translate(0)" fill="url(#linear-gradient)"/>
        <path id="Path_5_Copy" data-name="Path 5 Copy" d="M10.8,0,0,19.7H5.986L16.789,0Z" transform="translate(7.368)" opacity="0.5" fill="url(#linear-gradient)"/>
        <path id="Path_5_Copy_2" data-name="Path 5 Copy 2" d="M10.8,0,0,19.7H5.986L16.789,0Z" transform="translate(14.737)" opacity="0.15" fill="url(#linear-gradient)"/>
      </g>
    </g>
    <path id="Path" d="M4.6,1.749H0A2.2,2.2,0,0,1,2.252,0,2.285,2.285,0,0,1,4.6,1.749Z" transform="translate(200.502 54.801)" fill="#2d314d"/>
    <path id="Path-2" data-name="Path" d="M2.545,5.177A2.5,2.5,0,0,1,0,2.584,2.492,2.492,0,0,1,2.545,0,2.5,2.5,0,0,1,5.09,2.584,2.5,2.5,0,0,1,2.545,5.177Z" transform="translate(214.023 55.203)" fill="#2d314d"/>
    <path id="Path-3" data-name="Path" d="M2.545,5.173A2.5,2.5,0,0,1,0,2.593,2.5,2.5,0,0,1,2.545,0,2.5,2.5,0,0,1,5.09,2.593,2.5,2.5,0,0,1,2.545,5.173Z" transform="translate(253.227 55.205)" fill="#2d314d"/>
    <path id="Path-4" data-name="Path" d="M2.545,5.177A2.5,2.5,0,0,1,0,2.584,2.492,2.492,0,0,1,2.545,0,2.5,2.5,0,0,1,5.09,2.584,2.5,2.5,0,0,1,2.545,5.177Z" transform="translate(267.349 55.203)" fill="#2d314d"/>
  </g>
</svg>
